STARTFONT 2.1
FONT -sun-timmons-bold-i-normal--10-100-75-75-p-56-adobe-fontspecific
SIZE 10 75 75
FONTBOUNDINGBOX 13 12 -2 -2

STARTPROPERTIES 28
FOUNDRY "sun"
FAMILY_NAME "timmons"
WEIGHT_NAME "bold"
SLANT "i"
SETWIDTH_NAME "normal"
ADD_STYLE_NAME ""
PIXEL_SIZE 10
POINT_SIZE 100
RESOLUTION_X 75
RESOLUTION_Y 75
SPACING "p"
AVERAGE_WIDTH 56
CHARSET_REGISTRY "adobe"
CHARSET_ENCODING "fontspecific"
COPYRIGHT "© 1999 Sun Microsystems, Inc."
RAW_PIXELSIZE 1000
RAW_POINTSIZE 964
RAW_ASCENT 932
RAW_DESCENT 200
RAW_AVERAGE_WIDTH 5346
FACE_NAME "TimmonsBoldItalicdensedN5"
_XMBDFED_INFO "Edited with xmbdfed 2.4."
WEIGHT 10
X_HEIGHT -1
QUAD_WIDTH 5
DEFAULT_CHAR 4
FONT_DESCENT 2
FONT_ASCENT 10
ENDPROPERTIES

CHARS 206

STARTCHAR char32
ENCODING 32
SWIDTH 25 0
DWIDTH 3 0
BBX 0 0 0 0
BITMAP
ENDCHAR

STARTCHAR char33
ENCODING 33
SWIDTH 25 0
DWIDTH 3 0
BBX 3 7 1 0
BITMAP
20
20
40
40
40
C0
C0
ENDCHAR

STARTCHAR char34
ENCODING 34
SWIDTH 43 0
DWIDTH 5 0
BBX 5 3 1 4
BITMAP
78
70
50
ENDCHAR

STARTCHAR char35
ENCODING 35
SWIDTH 51 0
DWIDTH 6 0
BBX 5 8 0 0
BITMAP
28
28
F8
50
50
F8
50
50
ENDCHAR

STARTCHAR char36
ENCODING 36
SWIDTH 51 0
DWIDTH 6 0
BBX 6 10 0 -1
BITMAP
04
08
7C
6C
70
38
BC
AC
D8
20
ENDCHAR

STARTCHAR char37
ENCODING 37
SWIDTH 68 0
DWIDTH 8 0
BBX 9 7 0 0
BITMAP
7C00
DC00
DF00
FD80
7D80
1D80
1F00
ENDCHAR

STARTCHAR char38
ENCODING 38
SWIDTH 68 0
DWIDTH 8 0
BBX 8 8 0 0
BITMAP
0E
16
1C
18
3E
CE
CC
76
ENDCHAR

STARTCHAR char39
ENCODING 39
SWIDTH 25 0
DWIDTH 3 0
BBX 2 3 2 4
BITMAP
40
C0
40
ENDCHAR

STARTCHAR char40
ENCODING 40
SWIDTH 34 0
DWIDTH 4 0
BBX 5 9 1 -1
BITMAP
10
20
60
40
C0
C0
C0
C0
40
ENDCHAR

STARTCHAR char41
ENCODING 41
SWIDTH 34 0
DWIDTH 4 0
BBX 5 9 -1 -1
BITMAP
10
10
18
18
18
10
30
20
40
ENDCHAR

STARTCHAR char42
ENCODING 42
SWIDTH 43 0
DWIDTH 5 0
BBX 4 3 2 4
BITMAP
E0
70
E0
ENDCHAR

STARTCHAR char43
ENCODING 43
SWIDTH 60 0
DWIDTH 7 0
BBX 6 6 1 0
BITMAP
30
30
FC
30
30
30
ENDCHAR

STARTCHAR char44
ENCODING 44
SWIDTH 25 0
DWIDTH 3 0
BBX 2 4 0 -2
BITMAP
40
C0
C0
80
ENDCHAR

STARTCHAR char45
ENCODING 45
SWIDTH 34 0
DWIDTH 4 0
BBX 3 1 1 3
BITMAP
E0
ENDCHAR

STARTCHAR char46
ENCODING 46
SWIDTH 25 0
DWIDTH 3 0
BBX 2 2 0 0
BITMAP
C0
C0
ENDCHAR

STARTCHAR char47
ENCODING 47
SWIDTH 34 0
DWIDTH 4 0
BBX 4 7 1 0
BITMAP
10
20
20
40
40
40
80
ENDCHAR

STARTCHAR char48
ENCODING 48
SWIDTH 43 0
DWIDTH 5 0
BBX 5 7 1 0
BITMAP
38
58
D8
98
90
B0
E0
ENDCHAR

STARTCHAR char49
ENCODING 49
SWIDTH 43 0
DWIDTH 5 0
BBX 5 7 0 0
BITMAP
38
10
10
30
20
20
60
ENDCHAR

STARTCHAR char50
ENCODING 50
SWIDTH 43 0
DWIDTH 5 0
BBX 5 7 0 0
BITMAP
38
18
18
10
20
30
60
ENDCHAR

STARTCHAR char51
ENCODING 51
SWIDTH 43 0
DWIDTH 5 0
BBX 5 7 0 0
BITMAP
38
18
10
38
18
18
70
ENDCHAR

STARTCHAR char52
ENCODING 52
SWIDTH 43 0
DWIDTH 5 0
BBX 6 8 0 0
BITMAP
04
08
18
38
50
78
30
30
ENDCHAR

STARTCHAR char53
ENCODING 53
SWIDTH 43 0
DWIDTH 5 0
BBX 5 7 0 0
BITMAP
38
20
70
18
18
18
70
ENDCHAR

STARTCHAR char54
ENCODING 54
SWIDTH 43 0
DWIDTH 5 0
BBX 5 8 1 0
BITMAP
08
30
60
E0
98
98
98
F0
ENDCHAR

STARTCHAR char55
ENCODING 55
SWIDTH 43 0
DWIDTH 5 0
BBX 5 7 1 0
BITMAP
78
90
10
20
20
40
80
ENDCHAR

STARTCHAR char56
ENCODING 56
SWIDTH 43 0
DWIDTH 5 0
BBX 6 7 0 0
BITMAP
3C
64
38
78
D8
D8
F0
ENDCHAR

STARTCHAR char57
ENCODING 57
SWIDTH 43 0
DWIDTH 5 0
BBX 5 7 1 0
BITMAP
78
D8
D8
D8
30
20
C0
ENDCHAR

STARTCHAR char58
ENCODING 58
SWIDTH 25 0
DWIDTH 3 0
BBX 3 5 1 0
BITMAP
60
60
00
C0
C0
ENDCHAR

STARTCHAR char59
ENCODING 59
SWIDTH 25 0
DWIDTH 3 0
BBX 4 7 0 -2
BITMAP
30
30
00
20
60
40
40
ENDCHAR

STARTCHAR char60
ENCODING 60
SWIDTH 51 0
DWIDTH 6 0
BBX 5 5 0 0
BITMAP
18
60
C0
30
08
ENDCHAR

STARTCHAR char61
ENCODING 61
SWIDTH 60 0
DWIDTH 7 0
BBX 7 2 0 2
BITMAP
FE
FE
ENDCHAR

STARTCHAR char62
ENCODING 62
SWIDTH 51 0
DWIDTH 6 0
BBX 6 5 0 0
BITMAP
60
10
0C
30
C0
ENDCHAR

STARTCHAR char63
ENCODING 63
SWIDTH 43 0
DWIDTH 5 0
BBX 5 7 1 0
BITMAP
78
58
30
60
40
C0
C0
ENDCHAR

STARTCHAR char64
ENCODING 64
SWIDTH 7 0
DWIDTH 11 0
BBX 9 8 1 0
BITMAP
1C00
2200
7B00
E580
E500
ED00
7E00
3C00
ENDCHAR

STARTCHAR char65
ENCODING 65
SWIDTH 60 0
DWIDTH 7 0
BBX 6 7 0 0
BITMAP
04
0C
1C
1C
3C
4C
DC
ENDCHAR

STARTCHAR char66
ENCODING 66
SWIDTH 60 0
DWIDTH 7 0
BBX 7 7 0 0
BITMAP
3C
36
3C
68
6C
4C
F8
ENDCHAR

STARTCHAR char67
ENCODING 67
SWIDTH 60 0
DWIDTH 7 0
BBX 7 7 1 0
BITMAP
3E
62
C0
C0
C0
C4
78
ENDCHAR

STARTCHAR char68
ENCODING 68
SWIDTH 68 0
DWIDTH 8 0
BBX 8 7 0 0
BITMAP
3E
33
23
63
67
4E
F8
ENDCHAR

STARTCHAR char69
ENCODING 69
SWIDTH 51 0
DWIDTH 6 0
BBX 7 7 0 0
BITMAP
3E
30
34
28
60
64
FC
ENDCHAR

STARTCHAR char70
ENCODING 70
SWIDTH 51 0
DWIDTH 6 0
BBX 7 7 0 0
BITMAP
3E
32
34
28
60
60
E0
ENDCHAR

STARTCHAR char71
ENCODING 71
SWIDTH 68 0
DWIDTH 8 0
BBX 8 7 1 0
BITMAP
3F
61
C0
CE
C4
CC
7C
ENDCHAR

STARTCHAR char72
ENCODING 72
SWIDTH 68 0
DWIDTH 8 0
BBX 10 7 0 0
BITMAP
3BC0
3300
2300
7E00
6600
4600
EE00
ENDCHAR

STARTCHAR char73
ENCODING 73
SWIDTH 34 0
DWIDTH 4 0
BBX 5 7 0 0
BITMAP
38
30
30
20
60
60
A0
ENDCHAR

STARTCHAR char74
ENCODING 74
SWIDTH 43 0
DWIDTH 5 0
BBX 7 7 -1 0
BITMAP
0E
0C
08
08
18
D0
F0
ENDCHAR

STARTCHAR char75
ENCODING 75
SWIDTH 60 0
DWIDTH 7 0
BBX 8 8 0 0
BITMAP
23
36
34
28
78
68
48
FC
ENDCHAR

STARTCHAR char76
ENCODING 76
SWIDTH 51 0
DWIDTH 6 0
BBX 6 7 0 0
BITMAP
38
30
20
60
60
64
FC
ENDCHAR

STARTCHAR char77
ENCODING 77
SWIDTH 86 0
DWIDTH 10 0
BBX 12 7 -1 0
BITMAP
3870
19C0
19C0
2AC0
2E80
2D80
4B80
ENDCHAR

STARTCHAR char78
ENCODING 78
SWIDTH 68 0
DWIDTH 8 0
BBX 9 7 0 0
BITMAP
3180
3900
3900
4E00
4E00
4400
C400
ENDCHAR

STARTCHAR char79
ENCODING 79
SWIDTH 68 0
DWIDTH 8 0
BBX 7 7 1 0
BITMAP
3E
66
C6
C6
C4
CC
70
ENDCHAR

STARTCHAR char80
ENCODING 80
SWIDTH 51 0
DWIDTH 6 0
BBX 7 7 0 0
BITMAP
3E
36
26
38
60
60
E0
ENDCHAR

STARTCHAR char81
ENCODING 81
SWIDTH 68 0
DWIDTH 8 0
BBX 7 9 1 -2
BITMAP
3E
66
C6
C6
C4
CC
70
72
FC
ENDCHAR

STARTCHAR char82
ENCODING 82
SWIDTH 60 0
DWIDTH 7 0
BBX 7 8 0 0
BITMAP
30
3E
36
24
78
68
4C
CC
ENDCHAR

STARTCHAR char83
ENCODING 83
SWIDTH 51 0
DWIDTH 6 0
BBX 7 7 0 0
BITMAP
7E
62
70
38
8C
8C
F8
ENDCHAR

STARTCHAR char84
ENCODING 84
SWIDTH 51 0
DWIDTH 6 0
BBX 6 7 1 0
BITMAP
7C
B4
20
20
60
60
60
ENDCHAR

STARTCHAR char85
ENCODING 85
SWIDTH 60 0
DWIDTH 7 0
BBX 8 7 1 0
BITMAP
73
62
42
C4
C4
CC
70
ENDCHAR

STARTCHAR char86
ENCODING 86
SWIDTH 60 0
DWIDTH 7 0
BBX 7 7 2 0
BITMAP
EE
C8
D0
E0
E0
80
80
ENDCHAR

STARTCHAR char87
ENCODING 87
SWIDTH 86 0
DWIDTH 10 0
BBX 10 7 1 0
BITMAP
7780
CC80
D500
FE00
EC00
CC00
8800
ENDCHAR

STARTCHAR char88
ENCODING 88
SWIDTH 60 0
DWIDTH 7 0
BBX 8 7 0 0
BITMAP
3B
14
18
18
28
4C
DC
ENDCHAR

STARTCHAR char89
ENCODING 89
SWIDTH 60 0
DWIDTH 7 0
BBX 8 7 1 0
BITMAP
7A
24
38
30
30
20
E0
ENDCHAR

STARTCHAR char90
ENCODING 90
SWIDTH 60 0
DWIDTH 7 0
BBX 8 7 0 0
BITMAP
3E
06
0C
18
30
44
FC
ENDCHAR

STARTCHAR char91
ENCODING 91
SWIDTH 25 0
DWIDTH 3 0
BBX 5 10 0 -2
BITMAP
38
20
20
20
60
40
40
C0
80
40
ENDCHAR

STARTCHAR char92
ENCODING 92
SWIDTH 25 0
DWIDTH 3 0
BBX 3 8 0 0
BITMAP
80
80
40
40
40
40
20
20
ENDCHAR

STARTCHAR char93
ENCODING 93
SWIDTH 25 0
DWIDTH 3 0
BBX 5 10 -1 -2
BITMAP
18
08
18
10
10
30
30
20
60
60
ENDCHAR

STARTCHAR char94
ENCODING 94
SWIDTH 0 0
DWIDTH 0 0
BBX 3 1 0 8
BITMAP
60
ENDCHAR

STARTCHAR char95
ENCODING 95
SWIDTH 51 0
DWIDTH 6 0
BBX 6 1 0 -2
BITMAP
FC
ENDCHAR

STARTCHAR char96
ENCODING 96
SWIDTH 0 0
DWIDTH 0 0
BBX 2 2 0 5
BITMAP
80
40
ENDCHAR

STARTCHAR char97
ENCODING 97
SWIDTH 51 0
DWIDTH 6 0
BBX 6 5 0 0
BITMAP
38
48
D8
D8
F8
ENDCHAR

STARTCHAR char98
ENCODING 98
SWIDTH 43 0
DWIDTH 5 0
BBX 5 8 0 0
BITMAP
10
20
20
38
78
58
50
F0
ENDCHAR

STARTCHAR char99
ENCODING 99
SWIDTH 34 0
DWIDTH 4 0
BBX 5 5 0 0
BITMAP
38
58
C0
C8
F0
ENDCHAR

STARTCHAR char100
ENCODING 100
SWIDTH 51 0
DWIDTH 6 0
BBX 6 8 0 0
BITMAP
04
04
0C
38
48
D8
D8
F8
ENDCHAR

STARTCHAR char101
ENCODING 101
SWIDTH 43 0
DWIDTH 5 0
BBX 5 5 0 0
BITMAP
38
58
F0
C0
F0
ENDCHAR

STARTCHAR char102
ENCODING 102
SWIDTH 25 0
DWIDTH 3 0
BBX 8 10 -2 -2
BITMAP
02
05
08
1C
18
10
10
30
20
C0
ENDCHAR

STARTCHAR char103
ENCODING 103
SWIDTH 43 0
DWIDTH 5 0
BBX 6 7 -1 -2
BITMAP
3C
6C
7C
60
7C
8C
78
ENDCHAR

STARTCHAR char104
ENCODING 104
SWIDTH 51 0
DWIDTH 6 0
BBX 6 8 0 0
BITMAP
10
20
20
78
68
48
D8
58
ENDCHAR

STARTCHAR char105
ENCODING 105
SWIDTH 25 0
DWIDTH 3 0
BBX 3 8 1 0
BITMAP
60
60
00
C0
C0
C0
C0
C0
ENDCHAR

STARTCHAR char106
ENCODING 106
SWIDTH 25 0
DWIDTH 3 0
BBX 5 10 -2 -2
BITMAP
08
08
00
18
18
10
10
30
20
E0
ENDCHAR

STARTCHAR char107
ENCODING 107
SWIDTH 51 0
DWIDTH 6 0
BBX 6 8 0 0
BITMAP
10
20
20
6C
70
70
D0
D8
ENDCHAR

STARTCHAR char108
ENCODING 108
SWIDTH 25 0
DWIDTH 3 0
BBX 4 8 0 0
BITMAP
10
30
20
60
60
40
C0
C0
ENDCHAR

STARTCHAR char109
ENCODING 109
SWIDTH 68 0
DWIDTH 8 0
BBX 8 5 0 0
BITMAP
5F
7F
4B
DE
56
ENDCHAR

STARTCHAR char110
ENCODING 110
SWIDTH 51 0
DWIDTH 6 0
BBX 6 5 0 0
BITMAP
58
68
48
D8
58
ENDCHAR

STARTCHAR char111
ENCODING 111
SWIDTH 43 0
DWIDTH 5 0
BBX 6 5 0 0
BITMAP
3C
4C
CC
D8
F0
ENDCHAR

STARTCHAR char112
ENCODING 112
SWIDTH 43 0
DWIDTH 5 0
BBX 6 7 -1 -2
BITMAP
2C
3C
2C
28
70
40
60
ENDCHAR

STARTCHAR char113
ENCODING 113
SWIDTH 43 0
DWIDTH 5 0
BBX 6 7 0 -2
BITMAP
38
48
D8
D8
F0
10
70
ENDCHAR

STARTCHAR char114
ENCODING 114
SWIDTH 34 0
DWIDTH 4 0
BBX 5 5 0 0
BITMAP
48
78
60
60
40
ENDCHAR

STARTCHAR char115
ENCODING 115
SWIDTH 34 0
DWIDTH 4 0
BBX 4 5 0 0
BITMAP
70
70
30
B0
F0
ENDCHAR

STARTCHAR char116
ENCODING 116
SWIDTH 25 0
DWIDTH 3 0
BBX 4 6 0 0
BITMAP
20
F0
60
E0
C0
E0
ENDCHAR

STARTCHAR char117
ENCODING 117
SWIDTH 51 0
DWIDTH 6 0
BBX 6 5 0 0
BITMAP
8C
6C
C8
D8
F8
ENDCHAR

STARTCHAR char118
ENCODING 118
SWIDTH 34 0
DWIDTH 4 0
BBX 5 5 0 0
BITMAP
D8
78
70
60
40
ENDCHAR

STARTCHAR char119
ENCODING 119
SWIDTH 60 0
DWIDTH 7 0
BBX 7 5 0 0
BITMAP
EE
7E
74
58
50
ENDCHAR

STARTCHAR char120
ENCODING 120
SWIDTH 43 0
DWIDTH 5 0
BBX 6 5 0 0
BITMAP
6C
30
30
30
D8
ENDCHAR

STARTCHAR char121
ENCODING 121
SWIDTH 43 0
DWIDTH 5 0
BBX 6 7 -1 -2
BITMAP
7C
34
38
28
30
20
C0
ENDCHAR

STARTCHAR char122
ENCODING 122
SWIDTH 34 0
DWIDTH 4 0
BBX 5 6 0 -1
BITMAP
70
60
20
40
F0
30
ENDCHAR

STARTCHAR char123
ENCODING 123
SWIDTH 34 0
DWIDTH 4 0
BBX 3 9 0 -2
BITMAP
60
60
60
60
C0
60
60
60
60
ENDCHAR

STARTCHAR char124
ENCODING 124
SWIDTH 25 0
DWIDTH 3 0
BBX 2 8 0 0
BITMAP
C0
C0
C0
C0
C0
C0
C0
C0
ENDCHAR

STARTCHAR char125
ENCODING 125
SWIDTH 34 0
DWIDTH 4 0
BBX 3 9 0 -2
BITMAP
C0
40
40
60
20
60
60
60
E0
ENDCHAR

STARTCHAR char126
ENCODING 126
SWIDTH 0 0
DWIDTH 0 0
BBX 4 1 0 8
BITMAP
F0
ENDCHAR

STARTCHAR char128
ENCODING 128
SWIDTH 43 0
DWIDTH 5 0
BBX 7 7 0 0
BITMAP
1C
32
60
F8
C0
CC
70
ENDCHAR

STARTCHAR char130
ENCODING 130
SWIDTH 25 0
DWIDTH 3 0
BBX 2 4 0 -2
BITMAP
40
C0
C0
80
ENDCHAR

STARTCHAR char131
ENCODING 131
SWIDTH 0 0
DWIDTH 0 0
BBX 3 1 0 8
BITMAP
60
ENDCHAR

STARTCHAR char132
ENCODING 132
SWIDTH 43 0
DWIDTH 5 0
BBX 5 4 0 -2
BITMAP
48
D8
D0
A0
ENDCHAR

STARTCHAR char133
ENCODING 133
SWIDTH 7 0
DWIDTH 11 0
BBX 9 1 1 0
BITMAP
D980
ENDCHAR

STARTCHAR char134
ENCODING 134
SWIDTH 43 0
DWIDTH 5 0
BBX 5 9 1 -2
BITMAP
30
20
F8
60
40
40
40
40
80
ENDCHAR

STARTCHAR char136
ENCODING 136
SWIDTH 0 0
DWIDTH 0 0
BBX 4 2 -1 5
BITMAP
60
90
ENDCHAR

STARTCHAR char137
ENCODING 137
SWIDTH 86 0
DWIDTH 10 0
BBX 0 0 0 0
BITMAP
ENDCHAR

STARTCHAR char138
ENCODING 138
SWIDTH 86 0
DWIDTH 10 0
BBX 0 0 0 0
BITMAP
ENDCHAR

STARTCHAR char139
ENCODING 139
SWIDTH 34 0
DWIDTH 4 0
BBX 2 4 1 1
BITMAP
40
80
80
40
ENDCHAR

STARTCHAR char140
ENCODING 140
SWIDTH 7 0
DWIDTH 11 0
BBX 10 7 1 0
BITMAP
3FC0
6600
4480
C700
CC00
CC80
7F80
ENDCHAR

STARTCHAR char141
ENCODING 141
SWIDTH 86 0
DWIDTH 10 0
BBX 0 0 0 0
BITMAP
ENDCHAR

STARTCHAR char143
ENCODING 143
SWIDTH 86 0
DWIDTH 10 0
BBX 0 0 0 0
BITMAP
ENDCHAR

STARTCHAR char145
ENCODING 145
SWIDTH 25 0
DWIDTH 3 0
BBX 2 3 2 4
BITMAP
40
C0
40
ENDCHAR

STARTCHAR char146
ENCODING 146
SWIDTH 25 0
DWIDTH 3 0
BBX 2 3 2 4
BITMAP
C0
80
80
ENDCHAR

STARTCHAR char147
ENCODING 147
SWIDTH 43 0
DWIDTH 5 0
BBX 5 4 1 4
BITMAP
28
48
D8
48
ENDCHAR

STARTCHAR char148
ENCODING 148
SWIDTH 43 0
DWIDTH 5 0
BBX 4 3 2 4
BITMAP
F0
F0
A0
ENDCHAR

STARTCHAR char149
ENCODING 149
SWIDTH 34 0
DWIDTH 4 0
BBX 3 3 0 2
BITMAP
E0
E0
E0
ENDCHAR

STARTCHAR char150
ENCODING 150
SWIDTH 43 0
DWIDTH 5 0
BBX 4 1 1 3
BITMAP
F0
ENDCHAR

STARTCHAR char151
ENCODING 151
SWIDTH 60 0
DWIDTH 7 0
BBX 7 1 0 3
BITMAP
FE
ENDCHAR

STARTCHAR char152
ENCODING 152
SWIDTH 0 0
DWIDTH 0 0
BBX 4 1 -1 6
BITMAP
F0
ENDCHAR

STARTCHAR char153
ENCODING 153
SWIDTH 77 0
DWIDTH 9 0
BBX 10 4 0 3
BITMAP
F900
4D80
4E80
7F40
ENDCHAR

STARTCHAR char155
ENCODING 155
SWIDTH 34 0
DWIDTH 4 0
BBX 2 4 1 1
BITMAP
80
80
C0
80
ENDCHAR

STARTCHAR char156
ENCODING 156
SWIDTH 60 0
DWIDTH 7 0
BBX 8 5 0 0
BITMAP
3F
4B
DE
DB
FC
ENDCHAR

STARTCHAR char157
ENCODING 157
SWIDTH 86 0
DWIDTH 10 0
BBX 0 0 0 0
BITMAP
ENDCHAR

STARTCHAR char159
ENCODING 159
SWIDTH 60 0
DWIDTH 7 0
BBX 8 9 1 0
BITMAP
36
00
7A
34
38
30
30
30
F0
ENDCHAR

STARTCHAR char160
ENCODING 160
SWIDTH 25 0
DWIDTH 3 0
BBX 0 0 0 0
BITMAP
ENDCHAR

STARTCHAR char161
ENCODING 161
SWIDTH 25 0
DWIDTH 3 0
BBX 4 7 0 0
BITMAP
30
30
20
20
40
40
40
ENDCHAR

STARTCHAR char162
ENCODING 162
SWIDTH 34 0
DWIDTH 4 0
BBX 5 7 0 -1
BITMAP
10
38
58
E0
E8
F0
40
ENDCHAR

STARTCHAR char163
ENCODING 163
SWIDTH 60 0
DWIDTH 7 0
BBX 7 7 0 0
BITMAP
0E
10
10
38
10
F2
DC
ENDCHAR

STARTCHAR char164
ENCODING 164
SWIDTH 0 0
DWIDTH 0 0
BBX 3 1 1 8
BITMAP
40
ENDCHAR

STARTCHAR char165
ENCODING 165
SWIDTH 0 0
DWIDTH 0 0
BBX 3 1 1 8
BITMAP
C0
ENDCHAR

STARTCHAR char166
ENCODING 166
SWIDTH 86 0
DWIDTH 10 0
BBX 0 0 0 0
BITMAP
ENDCHAR

STARTCHAR char167
ENCODING 167
SWIDTH 43 0
DWIDTH 5 0
BBX 6 10 0 -2
BITMAP
18
34
30
70
58
38
28
30
C0
E0
ENDCHAR

STARTCHAR char168
ENCODING 168
SWIDTH 0 0
DWIDTH 0 0
BBX 4 1 -1 6
BITMAP
F0
ENDCHAR

STARTCHAR char169
ENCODING 169
SWIDTH 68 0
DWIDTH 8 0
BBX 8 7 0 0
BITMAP
38
5E
E6
E3
E3
7A
3C
ENDCHAR

STARTCHAR char170
ENCODING 170
SWIDTH 0 0
DWIDTH 0 0
BBX 4 1 0 8
BITMAP
F0
ENDCHAR

STARTCHAR char171
ENCODING 171
SWIDTH 51 0
DWIDTH 6 0
BBX 5 5 1 0
BITMAP
50
90
A0
90
90
ENDCHAR

STARTCHAR char172
ENCODING 172
SWIDTH 68 0
DWIDTH 8 0
BBX 7 3 0 0
BITMAP
FE
06
06
ENDCHAR

STARTCHAR char174
ENCODING 174
SWIDTH 68 0
DWIDTH 8 0
BBX 8 7 0 0
BITMAP
38
7E
FE
F3
FB
7E
3C
ENDCHAR

STARTCHAR char175
ENCODING 175
SWIDTH 86 0
DWIDTH 10 0
BBX 0 0 0 0
BITMAP
ENDCHAR

STARTCHAR char176
ENCODING 176
SWIDTH 25 0
DWIDTH 3 0
BBX 4 3 1 4
BITMAP
60
F0
60
ENDCHAR

STARTCHAR char177
ENCODING 177
SWIDTH 51 0
DWIDTH 6 0
BBX 5 7 0 0
BITMAP
30
30
30
F8
30
30
F8
ENDCHAR

STARTCHAR char179
ENCODING 179
SWIDTH 86 0
DWIDTH 10 0
BBX 0 0 0 0
BITMAP
ENDCHAR

STARTCHAR char180
ENCODING 180
SWIDTH 0 0
DWIDTH 0 0
BBX 2 2 1 6
BITMAP
C0
80
ENDCHAR

STARTCHAR char182
ENCODING 182
SWIDTH 60 0
DWIDTH 7 0
BBX 5 10 1 -2
BITMAP
78
F8
F8
F8
78
78
78
78
78
78
ENDCHAR

STARTCHAR char183
ENCODING 183
SWIDTH 17 0
DWIDTH 2 0
BBX 2 1 0 3
BITMAP
C0
ENDCHAR

STARTCHAR char184
ENCODING 184
SWIDTH 0 0
DWIDTH 0 0
BBX 3 2 -2 -2
BITMAP
40
E0
ENDCHAR

STARTCHAR char186
ENCODING 186
SWIDTH 0 0
DWIDTH 0 0
BBX 4 1 0 8
BITMAP
F0
ENDCHAR

STARTCHAR char187
ENCODING 187
SWIDTH 51 0
DWIDTH 6 0
BBX 5 5 0 0
BITMAP
48
28
48
50
90
ENDCHAR

STARTCHAR char189
ENCODING 189
SWIDTH 86 0
DWIDTH 10 0
BBX 0 0 0 0
BITMAP
ENDCHAR

STARTCHAR char191
ENCODING 191
SWIDTH 43 0
DWIDTH 5 0
BBX 5 7 0 0
BITMAP
18
18
10
20
C0
F0
F0
ENDCHAR

STARTCHAR char192
ENCODING 192
SWIDTH 60 0
DWIDTH 7 0
BBX 6 9 0 0
BITMAP
0C
04
04
0C
1C
1C
3C
4C
DC
ENDCHAR

STARTCHAR char193
ENCODING 193
SWIDTH 60 0
DWIDTH 7 0
BBX 7 9 0 0
BITMAP
0C
04
04
0C
1C
1C
3C
4C
DC
ENDCHAR

STARTCHAR char194
ENCODING 194
SWIDTH 60 0
DWIDTH 7 0
BBX 6 9 0 0
BITMAP
0C
04
04
0C
1C
1C
3C
4C
DC
ENDCHAR

STARTCHAR char195
ENCODING 195
SWIDTH 60 0
DWIDTH 7 0
BBX 7 9 0 0
BITMAP
1C
04
04
0C
1C
1C
3C
4C
DC
ENDCHAR

STARTCHAR char196
ENCODING 196
SWIDTH 60 0
DWIDTH 7 0
BBX 9 9 0 0
BITMAP
0D80
0000
0400
0C00
1C00
1C00
3C00
4C00
DC00
ENDCHAR

STARTCHAR char197
ENCODING 197
SWIDTH 60 0
DWIDTH 7 0
BBX 8 10 0 0
BITMAP
0F
0F
0F
04
0C
14
1C
3C
4C
9C
ENDCHAR

STARTCHAR char198
ENCODING 198
SWIDTH 86 0
DWIDTH 10 0
BBX 10 7 0 0
BITMAP
0FC0
0E00
1680
1500
3D00
4C80
DF80
ENDCHAR

STARTCHAR char199
ENCODING 199
SWIDTH 60 0
DWIDTH 7 0
BBX 7 9 1 -2
BITMAP
3E
62
C0
C0
C0
C4
78
40
60
ENDCHAR

STARTCHAR char200
ENCODING 200
SWIDTH 51 0
DWIDTH 6 0
BBX 7 9 0 0
BITMAP
08
00
3E
30
34
28
60
64
FC
ENDCHAR

STARTCHAR char201
ENCODING 201
SWIDTH 51 0
DWIDTH 6 0
BBX 7 9 0 0
BITMAP
0C
00
3E
30
34
28
60
64
FC
ENDCHAR

STARTCHAR char202
ENCODING 202
SWIDTH 51 0
DWIDTH 6 0
BBX 7 9 0 0
BITMAP
1C
00
3E
30
34
28
60
64
FC
ENDCHAR

STARTCHAR char203
ENCODING 203
SWIDTH 51 0
DWIDTH 6 0
BBX 7 9 0 0
BITMAP
36
00
3E
20
34
28
60
44
FC
ENDCHAR

STARTCHAR char204
ENCODING 204
SWIDTH 34 0
DWIDTH 4 0
BBX 5 9 0 0
BITMAP
10
00
38
30
30
20
60
60
A0
ENDCHAR

STARTCHAR char205
ENCODING 205
SWIDTH 34 0
DWIDTH 4 0
BBX 5 9 0 0
BITMAP
10
00
38
30
30
20
60
60
A0
ENDCHAR

STARTCHAR char206
ENCODING 206
SWIDTH 34 0
DWIDTH 4 0
BBX 5 9 0 0
BITMAP
38
00
38
30
30
20
60
60
A0
ENDCHAR

STARTCHAR char207
ENCODING 207
SWIDTH 34 0
DWIDTH 4 0
BBX 6 9 0 0
BITMAP
6C
00
38
30
30
60
60
60
A0
ENDCHAR

STARTCHAR char209
ENCODING 209
SWIDTH 68 0
DWIDTH 8 0
BBX 9 9 0 0
BITMAP
0E00
0000
3180
3900
3900
4E00
4E00
4400
C400
ENDCHAR

STARTCHAR char210
ENCODING 210
SWIDTH 68 0
DWIDTH 8 0
BBX 7 9 1 0
BITMAP
08
00
3E
66
C6
C6
C4
CC
70
ENDCHAR

STARTCHAR char211
ENCODING 211
SWIDTH 68 0
DWIDTH 8 0
BBX 7 9 1 0
BITMAP
08
00
3E
66
C6
C6
C4
CC
70
ENDCHAR

STARTCHAR char212
ENCODING 212
SWIDTH 68 0
DWIDTH 8 0
BBX 7 9 1 0
BITMAP
1C
00
3E
66
C6
C6
C4
CC
70
ENDCHAR

STARTCHAR char213
ENCODING 213
SWIDTH 68 0
DWIDTH 8 0
BBX 7 9 1 0
BITMAP
1C
00
3E
66
C6
C6
C4
CC
70
ENDCHAR

STARTCHAR char214
ENCODING 214
SWIDTH 68 0
DWIDTH 8 0
BBX 7 9 1 0
BITMAP
1E
00
3E
62
C6
C6
C4
CC
70
ENDCHAR

STARTCHAR char216
ENCODING 216
SWIDTH 68 0
DWIDTH 8 0
BBX 7 9 1 -1
BITMAP
02
3E
66
CE
D6
E4
CC
F0
80
ENDCHAR

STARTCHAR char217
ENCODING 217
SWIDTH 60 0
DWIDTH 7 0
BBX 8 9 1 0
BITMAP
08
00
7A
62
42
C4
C4
CC
70
ENDCHAR

STARTCHAR char218
ENCODING 218
SWIDTH 60 0
DWIDTH 7 0
BBX 8 9 1 0
BITMAP
08
00
7A
62
42
C4
C4
CC
70
ENDCHAR

STARTCHAR char219
ENCODING 219
SWIDTH 60 0
DWIDTH 7 0
BBX 8 9 1 0
BITMAP
1C
00
7A
62
42
C4
C4
CC
70
ENDCHAR

STARTCHAR char220
ENCODING 220
SWIDTH 60 0
DWIDTH 7 0
BBX 8 9 1 0
BITMAP
36
00
72
66
44
C4
C4
CC
70
ENDCHAR

STARTCHAR char221
ENCODING 221
SWIDTH 86 0
DWIDTH 10 0
BBX 0 0 0 0
BITMAP
ENDCHAR

STARTCHAR char222
ENCODING 222
SWIDTH 86 0
DWIDTH 10 0
BBX 0 0 0 0
BITMAP
ENDCHAR

STARTCHAR char223
ENCODING 223
SWIDTH 51 0
DWIDTH 6 0
BBX 8 10 -2 -2
BITMAP
07
19
1B
1E
12
13
33
3E
20
E0
ENDCHAR

STARTCHAR char224
ENCODING 224
SWIDTH 51 0
DWIDTH 6 0
BBX 6 7 0 0
BITMAP
10
10
38
48
D8
D8
F8
ENDCHAR

STARTCHAR char225
ENCODING 225
SWIDTH 51 0
DWIDTH 6 0
BBX 6 8 0 0
BITMAP
08
10
00
38
48
D8
D8
F8
ENDCHAR

STARTCHAR char226
ENCODING 226
SWIDTH 51 0
DWIDTH 6 0
BBX 6 7 0 0
BITMAP
18
68
38
48
D8
D8
F8
ENDCHAR

STARTCHAR char227
ENCODING 227
SWIDTH 51 0
DWIDTH 6 0
BBX 6 7 0 0
BITMAP
78
00
38
48
D8
D8
F8
ENDCHAR

STARTCHAR char228
ENCODING 228
SWIDTH 51 0
DWIDTH 6 0
BBX 6 7 0 0
BITMAP
3C
00
38
58
D8
F8
F8
ENDCHAR

STARTCHAR char229
ENCODING 229
SWIDTH 51 0
DWIDTH 6 0
BBX 6 8 0 0
BITMAP
1C
1C
1C
38
48
D8
D8
F8
ENDCHAR

STARTCHAR char230
ENCODING 230
SWIDTH 60 0
DWIDTH 7 0
BBX 7 5 0 0
BITMAP
7E
5E
7C
B2
DC
ENDCHAR

STARTCHAR char231
ENCODING 231
SWIDTH 34 0
DWIDTH 4 0
BBX 5 7 0 -2
BITMAP
38
58
C0
C8
F0
40
40
ENDCHAR

STARTCHAR char232
ENCODING 232
SWIDTH 43 0
DWIDTH 5 0
BBX 5 7 0 0
BITMAP
20
20
38
58
F0
C0
F0
ENDCHAR

STARTCHAR char233
ENCODING 233
SWIDTH 43 0
DWIDTH 5 0
BBX 5 8 0 0
BITMAP
18
10
00
38
58
F0
C0
F0
ENDCHAR

STARTCHAR char234
ENCODING 234
SWIDTH 43 0
DWIDTH 5 0
BBX 5 7 0 0
BITMAP
30
50
38
58
F0
C0
F0
ENDCHAR

STARTCHAR char235
ENCODING 235
SWIDTH 43 0
DWIDTH 5 0
BBX 4 7 1 0
BITMAP
F0
00
70
B0
C0
80
E0
ENDCHAR

STARTCHAR char236
ENCODING 236
SWIDTH 25 0
DWIDTH 3 0
BBX 3 7 0 0
BITMAP
60
20
E0
60
E0
C0
E0
ENDCHAR

STARTCHAR char237
ENCODING 237
SWIDTH 25 0
DWIDTH 3 0
BBX 4 8 0 0
BITMAP
10
20
00
E0
60
E0
C0
E0
ENDCHAR

STARTCHAR char238
ENCODING 238
SWIDTH 25 0
DWIDTH 3 0
BBX 3 7 1 0
BITMAP
60
A0
C0
40
C0
80
C0
ENDCHAR

STARTCHAR char239
ENCODING 239
SWIDTH 25 0
DWIDTH 3 0
BBX 4 7 1 0
BITMAP
F0
00
E0
C0
C0
C0
C0
ENDCHAR

STARTCHAR char241
ENCODING 241
SWIDTH 51 0
DWIDTH 6 0
BBX 6 7 0 0
BITMAP
38
00
78
68
48
D8
58
ENDCHAR

STARTCHAR char242
ENCODING 242
SWIDTH 43 0
DWIDTH 5 0
BBX 6 7 0 0
BITMAP
10
10
3C
4C
CC
D8
F0
ENDCHAR

STARTCHAR char243
ENCODING 243
SWIDTH 43 0
DWIDTH 5 0
BBX 6 8 0 0
BITMAP
0C
18
00
3C
4C
CC
D8
F0
ENDCHAR

STARTCHAR char244
ENCODING 244
SWIDTH 43 0
DWIDTH 5 0
BBX 6 7 0 0
BITMAP
18
68
3C
4C
CC
D8
F0
ENDCHAR

STARTCHAR char245
ENCODING 245
SWIDTH 43 0
DWIDTH 5 0
BBX 6 7 0 0
BITMAP
38
00
7C
6C
CC
D8
F0
ENDCHAR

STARTCHAR char246
ENCODING 246
SWIDTH 43 0
DWIDTH 5 0
BBX 6 7 0 0
BITMAP
3C
00
78
CC
D8
D8
F0
ENDCHAR

STARTCHAR char247
ENCODING 247
SWIDTH 51 0
DWIDTH 6 0
BBX 5 4 0 1
BITMAP
30
00
F8
30
ENDCHAR

STARTCHAR char248
ENCODING 248
SWIDTH 43 0
DWIDTH 5 0
BBX 5 7 0 -1
BITMAP
08
38
58
78
58
70
80
ENDCHAR

STARTCHAR char249
ENCODING 249
SWIDTH 51 0
DWIDTH 6 0
BBX 6 7 0 0
BITMAP
10
10
EC
68
C8
D8
F8
ENDCHAR

STARTCHAR char250
ENCODING 250
SWIDTH 51 0
DWIDTH 6 0
BBX 6 8 0 0
BITMAP
08
10
00
EC
68
C8
D8
F8
ENDCHAR

STARTCHAR char251
ENCODING 251
SWIDTH 51 0
DWIDTH 6 0
BBX 6 7 0 0
BITMAP
18
68
EC
68
C8
D8
F8
ENDCHAR

STARTCHAR char252
ENCODING 252
SWIDTH 51 0
DWIDTH 6 0
BBX 6 7 0 0
BITMAP
3C
00
EC
6C
D8
D8
F8
ENDCHAR

STARTCHAR char255
ENCODING 255
SWIDTH 43 0
DWIDTH 5 0
BBX 6 9 -1 -2
BITMAP
3C
00
6C
24
28
38
30
20
C0
ENDCHAR
ENDFONT
